<svg width="326" height="326" viewBox="0 0 326 326" fill="none" xmlns="http://www.w3.org/2000/svg">
<mask id="mask0_185_923" style="mask-type:luminance" maskUnits="userSpaceOnUse" x="65" y="57" width="176" height="217">
<path d="M240.424 57.5078H65.8008V273.65H240.424V57.5078Z" fill="white"/>
</mask>
<g mask="url(#mask0_185_923)">
<path opacity="0.3" fill-rule="evenodd" clip-rule="evenodd" d="M233.02 263.351H118.747C115.953 263.351 113.578 265.578 113.578 268.501C113.578 271.285 115.813 273.651 118.747 273.651H233.02C235.814 273.651 238.189 271.424 238.189 268.501C238.189 265.578 235.814 263.351 233.02 263.351Z" fill="#AFAFAF"/>
<path fill-rule="evenodd" clip-rule="evenodd" d="M172.535 254.861C172.535 250.268 168.764 246.371 164.014 246.371H150.463C145.853 246.371 141.941 250.129 141.941 254.861C141.941 259.454 145.713 263.351 150.463 263.351H164.014C168.764 263.351 172.535 259.593 172.535 254.861Z" fill="#F49000"/>
<path fill-rule="evenodd" clip-rule="evenodd" d="M218.357 258.618C220.453 254.443 218.776 249.433 214.725 247.345L206.483 243.17C202.292 241.082 197.263 242.752 195.167 246.788C193.072 250.964 194.748 255.974 198.8 258.062L207.042 262.237C211.233 264.464 216.262 262.794 218.357 258.618Z" fill="#F49000"/>
<path fill-rule="evenodd" clip-rule="evenodd" d="M223.805 255C223.805 250.407 220.033 246.649 215.423 246.649H212.769C208.159 246.649 204.387 250.407 204.387 255C204.387 259.593 208.159 263.351 212.769 263.351H215.423C220.033 263.351 223.805 259.593 223.805 255Z" fill="#F49000"/>
<path d="M154.647 163.143L206.195 62.3793C208.989 56.9514 216.254 55.838 220.584 60.1525C241.26 80.7507 246.428 112.761 232.878 139.344C219.327 165.927 190.13 180.54 161.212 175.947C155.205 174.973 151.853 168.571 154.647 163.143Z" fill="#58CC02"/>
<path d="M74.181 237.325L96.5327 132.664C97.79 127.097 104.076 124.314 109.106 127.097C133.134 140.876 145.707 168.85 139.839 196.407C133.972 223.964 110.782 244.702 83.2614 247.485C77.5337 248.042 72.9237 243.032 74.181 237.325Z" fill="#58CC02"/>
<path fill-rule="evenodd" clip-rule="evenodd" d="M149.062 79.0804C136.908 92.9981 127.967 101.348 122.24 104.132C116.652 106.916 104.638 108.725 86.4768 109.56C74.4628 110.117 65.2427 120.416 65.8015 132.524C65.9412 135.447 66.6396 138.37 68.0366 141.014L97.6527 201.417C113.439 233.706 152.554 247.067 185.104 231.34C217.514 215.613 230.925 176.782 215.139 144.633V144.493L185.244 83.8124C179.935 72.9566 166.803 68.5029 155.907 73.7916C153.392 75.0442 151.018 76.8535 149.062 79.0804Z" fill="#58CC02"/>
<path d="M186.503 181.794C186.363 180.959 185.525 180.541 184.687 180.82L170.018 187.918C169.18 188.335 169.041 189.309 169.599 189.866C172.533 192.789 177.003 193.485 180.915 191.675C184.826 189.866 187.062 185.83 186.503 181.794ZM159.122 193.624L144.454 200.722C143.615 201.139 143.476 202.114 144.034 202.67C146.968 205.593 151.439 206.289 155.35 204.48C159.262 202.531 161.497 198.495 160.938 194.459C160.798 193.763 159.82 193.345 159.122 193.624ZM178.121 199.748L163.453 206.846C162.614 207.263 162.475 208.237 163.033 208.794C165.967 211.717 170.438 212.413 174.349 210.603C178.261 208.655 180.496 204.619 179.937 200.583C179.797 199.887 178.819 199.33 178.121 199.748Z" fill="#89E219"/>
<path d="M147.245 92.7201L139.003 120.417C138.584 121.948 139.701 123.339 141.238 123.339C148.642 123.061 155.068 118.051 157.164 110.814C159.259 103.576 156.465 95.782 150.318 91.7459C149.061 90.9108 147.664 91.3283 147.245 92.7201Z" fill="#89E219"/>
<path fill-rule="evenodd" clip-rule="evenodd" d="M140.68 114.709C138.026 124.034 127.269 129.323 118.328 125.565C125.732 140.736 136.768 163.143 136.768 163.143C136.768 163.004 144.172 159.385 159.26 152.287C153.812 141.153 147.525 128.627 140.68 114.709Z" fill="#89E219"/>
<path d="M158.138 92.9982L150.175 120.416C149.756 121.947 150.873 123.338 152.41 123.338C159.814 123.06 166.24 118.05 168.336 110.813C170.431 103.575 167.637 95.9208 161.49 91.7455C160.233 90.7712 158.557 91.4672 158.138 92.9982Z" fill="#89E219"/>
<path d="M97.6518 117.215L124.474 128.21C125.871 128.766 126.29 130.576 125.312 131.828C120.423 137.395 112.46 139.205 105.475 136.282C98.49 133.359 94.299 126.261 94.9975 119.024C94.9975 117.354 96.2548 116.658 97.6518 117.215Z" fill="#89E219"/>
<path d="M91.2271 125.287L117.63 136.421C119.027 136.978 119.446 138.787 118.468 140.04C113.579 145.607 105.616 147.416 98.6311 144.493C91.6462 141.571 87.4553 134.473 88.1537 127.235C88.1537 125.565 89.8301 124.73 91.2271 125.287Z" fill="#89E219"/>
<path fill-rule="evenodd" clip-rule="evenodd" d="M154.791 99.8178L152.975 100.653C140.821 106.498 135.792 120.972 141.799 133.081L149.622 148.947C155.49 160.916 170.018 165.927 182.172 160.081L183.988 159.246C196.142 153.401 201.171 138.926 195.164 126.818L187.341 110.952C181.473 98.9828 166.945 93.9724 154.791 99.8178Z" fill="#89E219"/>
<path fill-rule="evenodd" clip-rule="evenodd" d="M97.9317 126.818L96.1156 127.653C83.9619 133.498 78.9327 147.973 84.9398 160.081L92.7629 175.947C98.6302 187.917 113.159 192.927 125.313 187.082L126.989 186.246C139.003 180.401 144.032 165.927 138.305 153.957L130.621 137.952C124.754 125.983 110.225 120.972 97.9317 126.818Z" fill="#89E219"/>
<path fill-rule="evenodd" clip-rule="evenodd" d="M102.261 135.725C93.3206 140.04 89.6885 150.756 94.0191 159.524L98.7689 169.128C103.1 178.035 113.856 181.654 122.797 177.339C131.738 173.025 135.37 162.308 131.039 153.54L126.289 143.937C121.819 135.168 111.062 131.411 102.261 135.725Z" fill="white"/>
<path fill-rule="evenodd" clip-rule="evenodd" d="M109.389 143.38C105.198 145.468 103.521 150.478 105.477 154.653L109.528 162.865C111.624 167.04 116.653 168.71 120.844 166.762C125.035 164.674 126.711 159.664 124.756 155.488L120.704 147.277C118.749 142.962 113.719 141.292 109.389 143.38Z" fill="#4B4B4B"/>
<path d="M105.613 154.376C108.545 154.376 110.922 152.008 110.922 149.087C110.922 146.166 108.545 143.798 105.613 143.798C102.681 143.798 100.305 146.166 100.305 149.087C100.305 152.008 102.681 154.376 105.613 154.376Z" fill="white"/>
<path fill-rule="evenodd" clip-rule="evenodd" d="M159.539 107.752C150.598 112.066 146.966 122.783 151.296 131.551L156.046 141.154C160.377 150.061 171.134 153.68 180.074 149.366C189.015 145.051 192.647 134.334 188.317 125.566L183.567 115.963C179.236 107.056 168.479 103.437 159.539 107.752Z" fill="white"/>
<path fill-rule="evenodd" clip-rule="evenodd" d="M161.635 118.328C157.444 120.416 155.768 125.426 157.723 129.601L161.775 137.813C163.87 141.988 168.899 143.658 173.09 141.71C177.281 139.622 178.957 134.612 177.002 130.436L172.95 122.225C170.995 118.05 165.965 116.38 161.635 118.328Z" fill="#4B4B4B"/>
<path d="M157.582 129.881C160.514 129.881 162.891 127.513 162.891 124.592C162.891 121.671 160.514 119.303 157.582 119.303C154.65 119.303 152.273 121.671 152.273 124.592C152.273 127.513 154.65 129.881 157.582 129.881Z" fill="white"/>
<path d="M100.586 178.87L92.9023 163.282C109.526 160.081 123.357 161.195 139.003 166.205L134.672 176.643C133.275 180.123 129.503 181.932 125.871 180.958C118.607 178.87 111.482 178.731 104.078 180.54C102.821 180.958 101.284 180.123 100.586 178.87Z" fill="#89E219"/>
<path d="M194.743 136.561L189.016 119.721C174.906 129.185 165.826 139.623 158.422 154.237L172.671 160.221C174.208 160.917 176.024 160.221 176.722 158.69C180.494 150.618 186.082 144.355 193.626 139.762C194.604 139.206 195.163 137.814 194.743 136.561Z" fill="#89E219"/>
<path fill-rule="evenodd" clip-rule="evenodd" d="M143.753 148.808C139.143 151.035 137.327 156.463 139.563 161.055L140.68 163.282C142.915 167.875 148.503 169.684 152.974 167.458C157.584 165.231 159.4 159.803 157.165 155.21L156.047 152.983C153.951 148.39 148.364 146.581 143.753 148.808Z" fill="#F49000"/>
<path d="M159.539 152.426C156.047 147.694 149.202 145.885 143.195 148.947C137.746 151.591 134.952 157.993 136.629 163.7L136.908 164.396L149.341 160.777L159.958 153.261L159.539 152.426Z" fill="#FFC200"/>
<path d="M143.476 156.046C143.057 156.046 142.499 155.907 142.219 155.489C141.521 154.793 141.521 153.68 142.219 152.984C143.896 151.314 145.991 150.201 148.366 149.922C149.344 149.783 150.322 150.479 150.322 151.592C150.461 152.567 149.763 153.541 148.645 153.541C147.109 153.68 145.851 154.376 144.734 155.489C144.315 155.907 143.896 156.046 143.476 156.046Z" fill="#FFDE00"/>
</g>
</svg>
