<svg width="80" height="80" viewBox="0 0 80 80" fill="none" xmlns="http://www.w3.org/2000/svg">
<rect width="80" height="80" fill="white" fill-opacity="0.04"/>
<path opacity="0.3" fill-rule="evenodd" clip-rule="evenodd" d="M22.9245 74.1973H52.6016C53.7351 74.1973 54.6449 75.0549 54.6449 76.0895C54.6449 77.1394 53.719 77.982 52.6016 77.982H22.9245C21.791 77.982 20.8811 77.1244 20.8811 76.0895C20.8811 75.0549 21.791 74.1973 22.9245 74.1973Z" fill="#AFAFAF"/>
<path d="M71.5988 51.208L65.5322 55.4364C65.2129 55.6581 65.1971 56.1017 65.5162 56.294C67.033 57.2253 69.156 57.1367 70.7686 56.0131C72.365 54.8895 73.0673 53.0414 72.5086 51.4298C72.3808 51.0898 71.9339 50.9862 71.5988 51.208Z" fill="#58CC02"/>
<path fill-rule="evenodd" clip-rule="evenodd" d="M13.5693 47.7187C14.4791 46.5951 16.2035 46.3733 17.4167 47.216L20.8968 49.6405C22.11 50.4834 22.3493 52.0799 21.4395 53.2037C20.5296 54.3273 18.8056 54.5491 17.5921 53.7061L14.1119 51.2817C12.8987 50.439 12.6594 48.8423 13.5693 47.7187Z" fill="#F49000"/>
<path fill-rule="evenodd" clip-rule="evenodd" d="M50.59 67.4853C49.0892 67.7071 47.6846 66.7608 47.4452 65.371L46.7587 61.3644C46.5193 59.9748 47.541 58.6737 49.0414 58.4522C50.5421 58.2304 51.9471 59.1763 52.1864 60.5662L52.8727 64.5728C53.0963 65.9623 52.0907 67.2635 50.59 67.4853Z" fill="#F49000"/>
<path d="M74.1207 26.2374L39.6385 25.1285C37.7869 25.0694 36.4137 26.6957 36.9246 28.3367C39.3673 36.2461 47.1418 41.9085 56.2412 42.2043C65.3406 42.4999 73.5302 37.3551 76.5631 29.6082C77.2179 27.9967 75.9726 26.2965 74.1207 26.2374Z" fill="#58CC02"/>
<path d="M12.8833 12.4436L43.2946 27.0356C44.9228 27.8192 45.2583 29.889 43.9651 31.1161C37.7071 37.0595 28.0171 38.5672 19.9873 34.7086C11.9574 30.85 7.56733 22.5856 8.97199 14.3212C9.27528 12.621 11.239 11.66 12.8833 12.4436Z" fill="#58CC02"/>
<path fill-rule="evenodd" clip-rule="evenodd" d="M34.4343 13.5814C23.6587 15.7843 16.7145 25.5271 18.7418 35.5803L19.7953 40.8141C21.759 50.5123 31.8483 56.9141 42.3206 55.0956C42.4802 55.066 42.6399 55.0365 42.7835 55.0069C53.5591 52.8779 60.5355 43.1944 58.5079 33.1705L57.3904 27.656C55.4428 18.0167 45.4496 11.6595 35.0409 13.4631C34.8655 13.4927 34.6579 13.5371 34.4343 13.5814Z" fill="#58CC02"/>
<path fill-rule="evenodd" clip-rule="evenodd" d="M18.0072 33.2744L56.5284 40.2082C57.4225 38.6559 58.077 36.9556 58.4921 35.1372L62.1476 18.6823C62.946 15.1193 60.4715 11.645 56.6241 10.9059C55.89 10.758 55.1237 10.7284 54.3732 10.8171C46.3433 11.6746 41.1073 11.8816 38.6488 11.4381C37.1481 11.1719 35.7113 10.2701 34.3385 8.74734C31.8321 5.95312 27.3464 5.58352 24.3292 7.90464C23.0839 8.86562 22.2379 10.1814 21.9186 11.645L18.3427 27.9077C17.9436 29.7114 17.8476 31.5151 18.0072 33.2744Z" fill="#58CC02"/>
<path d="M38.5053 40.8144L33.2529 39.8685C32.9657 39.824 32.7263 40.0162 32.7581 40.2676C32.9338 41.4652 33.9873 42.4702 35.3763 42.7216C36.7652 42.9729 38.138 42.4111 38.7925 41.3616C38.9361 41.1547 38.7925 40.8738 38.5053 40.8144ZM30.1242 39.8093C30.2678 39.5876 30.1081 39.3067 29.8367 39.2622L24.5846 38.3159C24.2971 38.2717 24.0577 38.464 24.0895 38.7153C24.2653 39.9126 25.3187 40.918 26.7077 41.1693C28.0966 41.4207 29.4694 40.8589 30.1242 39.8093ZM33.0614 44.0819L27.8094 43.1356C27.5218 43.0914 27.2824 43.2834 27.3142 43.5347C27.49 44.7323 28.5435 45.7377 29.9324 45.9891C31.3213 46.2404 32.6942 45.6786 33.3486 44.6287C33.4926 44.407 33.3486 44.141 33.0614 44.0819Z" fill="#89E219"/>
<path fill-rule="evenodd" clip-rule="evenodd" d="M39.2556 17.4405C37.0843 18.9189 34.2268 18.1058 33.0455 16.3021C31.2096 13.5671 30.0762 16.9674 29.6614 26.5032L38.3936 28.0704C40.4048 19.9982 40.7084 16.45 39.2556 17.4405Z" fill="#89E219"/>
<path fill-rule="evenodd" clip-rule="evenodd" d="M46.9821 16.066L46.3116 15.9477C42.033 15.1789 37.8984 17.7662 37.0685 21.7283L36.1265 26.1932C35.2963 30.1554 38.0902 33.9845 42.3684 34.7532L43.0389 34.8715C47.3172 35.6403 51.4518 33.0531 52.282 29.0909L53.224 24.626C54.0539 20.6787 51.2603 16.8348 46.9821 16.066Z" fill="#89E219"/>
<path d="M46.0084 12.8277L38.3615 18.0465C37.9625 18.3274 37.9625 18.8892 38.3776 19.1553C40.357 20.4416 43.0552 20.3972 45.0346 19.0223C47.014 17.6326 47.7964 15.2523 47.014 13.1381C46.8704 12.6946 46.4235 12.5468 46.0084 12.8277Z" fill="#89E219"/>
<path d="M48.8342 14.9125L41.3152 20.1461C40.9158 20.427 40.9158 20.9889 41.3309 21.255C43.3107 22.5412 46.0085 22.4968 47.9879 21.1219C49.9674 19.7322 50.7497 17.3519 49.9674 15.2378C49.8238 14.7943 49.249 14.6316 48.8342 14.9125Z" fill="#89E219"/>
<path d="M28.7832 9.94469L32.8381 16.0062C33.0454 16.3315 32.7742 16.7898 32.3112 16.9228C30.0442 17.529 27.7772 16.8785 26.7398 15.2818C25.7021 13.6851 26.149 11.5266 27.7933 9.95946C28.1287 9.63421 28.5756 9.61943 28.7832 9.94469Z" fill="#89E219"/>
<path d="M25.5906 11.4232L29.6455 17.4847C29.8531 17.81 29.5816 18.2683 29.1186 18.4014C26.8519 19.0075 24.5849 18.357 23.5472 16.7603C22.5098 15.1636 22.9567 13.0051 24.601 11.438C24.9361 11.1127 25.383 11.0979 25.5906 11.4232Z" fill="#89E219"/>
<path fill-rule="evenodd" clip-rule="evenodd" d="M28.1288 12.6798C24.7444 12.0737 21.4557 14.1139 20.8013 17.2629L19.2366 24.6994C18.5822 27.8336 20.7852 30.8792 24.1857 31.4853C27.5698 32.0915 30.8585 30.0513 31.5129 26.9022L33.0776 19.4657C33.7321 16.3167 31.5129 13.286 28.1288 12.6798Z" fill="#89E219"/>
<path fill-rule="evenodd" clip-rule="evenodd" d="M28.3682 15.489C25.8297 15.0307 23.3873 16.5683 22.8926 18.9042L21.7909 24.1378C21.2961 26.4885 22.9565 28.7505 25.4786 29.2088C28.001 29.6671 30.4595 28.1296 30.9542 25.7936L32.0559 20.56C32.5507 18.2093 30.9064 15.9473 28.3682 15.489Z" fill="white"/>
<path fill-rule="evenodd" clip-rule="evenodd" d="M28.2563 18.801C27.0432 18.5793 25.8618 19.3185 25.6221 20.4421L24.8401 24.1677C24.6004 25.2913 25.3988 26.3853 26.612 26.6071C27.8252 26.8289 29.0065 26.0897 29.2462 24.9661L30.0282 21.2404C30.2519 20.1021 29.4695 19.0228 28.2563 18.801Z" fill="#122431"/>
<path fill-rule="evenodd" clip-rule="evenodd" d="M25.7179 21.403C24.744 21.2256 24.1217 20.3533 24.2971 19.4663C24.4886 18.5644 25.4306 17.9878 26.3884 18.1505C27.3622 18.3279 27.9848 19.2001 27.8094 20.0872C27.6176 20.989 26.6759 21.5804 25.7179 21.403Z" fill="white"/>
<path fill-rule="evenodd" clip-rule="evenodd" d="M45.8805 18.4899C42.7197 17.9133 39.6547 19.8353 39.032 22.7626L38.3457 26.0299C37.7231 28.9571 39.7983 31.7957 42.9591 32.3723C46.1202 32.9489 49.1853 31.0269 49.8076 28.0997L50.4942 24.8324C51.1168 21.8903 49.0574 19.0517 45.8805 18.4899Z" fill="white"/>
<path fill-rule="evenodd" clip-rule="evenodd" d="M45.0666 21.7428C43.5819 21.4767 42.1451 22.3786 41.8579 23.7535L41.267 26.5625C40.9798 27.9374 41.9536 29.268 43.4383 29.5341C44.9229 29.8003 46.3597 28.8984 46.6469 27.5235L47.2378 24.7145C47.525 23.3543 46.5512 22.0237 45.0666 21.7428Z" fill="#122431"/>
<path d="M42.4962 24.2413C43.4838 24.2413 44.2842 23.5 44.2842 22.5855C44.2842 21.671 43.4838 20.9297 42.4962 20.9297C41.5089 20.9297 40.7083 21.671 40.7083 22.5855C40.7083 23.5 41.5089 24.2413 42.4962 24.2413Z" fill="white"/>
<path fill-rule="evenodd" clip-rule="evenodd" d="M34.0516 26.015C32.6788 25.7489 31.2899 26.4881 30.8587 27.73L29.6773 31.0712C29.1826 32.4609 30.0128 33.9541 31.5132 34.4124C31.625 34.442 31.7368 34.4716 31.8486 34.5011L32.0083 34.5307C33.6205 34.8264 35.1691 33.8506 35.4724 32.3574C35.4724 32.3279 35.4884 32.2983 35.4884 32.254L36.079 28.7501C36.3026 27.4786 35.4084 26.2811 34.0516 26.015Z" fill="#F49000"/>
<path fill-rule="evenodd" clip-rule="evenodd" d="M33.8118 26.6068L33.7003 26.592C32.6147 26.385 31.5451 26.9764 31.2258 27.9521L30.2359 30.8794C29.9168 31.8108 30.4756 32.8162 31.4972 33.0971C31.5612 33.1118 31.6248 33.1266 31.6887 33.1414L31.8484 33.171C32.9498 33.378 34.0193 32.7718 34.3387 31.7665L35.2646 28.8096C35.5519 27.8782 34.9774 26.9172 33.9715 26.6363C33.9236 26.6216 33.86 26.6068 33.8118 26.6068Z" fill="#DC6A01"/>
<path fill-rule="evenodd" clip-rule="evenodd" d="M34.3227 31.767L34.77 30.3329C34.6582 30.3033 34.5624 30.2738 34.4506 30.259C32.9181 29.9781 31.4495 30.9095 31.1462 32.3288C31.0983 32.5358 31.0823 32.7427 31.0983 32.935C31.2098 32.9941 31.3377 33.0532 31.4813 33.0976C31.5452 33.1124 31.6092 33.1271 31.6728 33.1419L31.8325 33.1715C32.9341 33.3637 34.0194 32.7575 34.3227 31.767Z" fill="#FFCAFF"/>
<path d="M36.3662 29.2088C36.4301 27.346 34.9776 25.705 32.95 25.3354C30.9227 24.9657 28.9111 26.0006 28.2088 27.7452L28.1609 27.8634L29.6774 28.2035L36.3505 29.3271L36.3662 29.2088Z" fill="#FFC200"/>
<path d="M33.5085 27.2576C33.4128 27.2576 33.317 27.228 33.2213 27.1836C32.7423 26.9323 32.2475 26.8436 31.7206 26.9175C31.4012 26.9619 31.0979 26.7401 31.05 26.4444C31.0022 26.1487 31.2419 25.8678 31.5609 25.8235C32.3593 25.7348 33.1095 25.8678 33.7961 26.2227C34.0833 26.3705 34.179 26.7105 34.0194 26.9619C33.9236 27.1541 33.7161 27.2576 33.5085 27.2576Z" fill="#FFDE00"/>
</svg>
