<svg width="80" height="80" viewBox="0 0 80 80" fill="none" xmlns="http://www.w3.org/2000/svg">
<g clip-path="url(#clip0_188_923)">
<path opacity="0.3" d="M70.175 79.5894C71.3368 79.5894 72.287 78.7535 72.287 77.7312C72.287 76.7094 71.3368 75.873 70.175 75.873H2.58449C1.42278 75.873 0.47229 76.7094 0.47229 77.7312C0.47229 78.7535 1.42278 79.5894 2.58449 79.5894H70.175Z" fill="#AFAFAF"/>
<path fill-rule="evenodd" clip-rule="evenodd" d="M78.6446 68.0871C77.3352 69.3321 75.1174 69.388 73.7233 68.2361L69.7104 64.9471C68.2952 63.7948 68.2317 61.8439 69.5411 60.6175C70.8511 59.3725 73.0689 59.3166 74.4624 60.4689L78.4758 63.7575C79.8699 64.9098 79.9546 66.8607 78.6446 68.0871Z" fill="#F49000"/>
<path fill-rule="evenodd" clip-rule="evenodd" d="M78.6446 47.6097C77.3352 46.3647 75.1174 46.3088 73.7233 47.4611L69.7104 50.7502C68.2952 51.902 68.2317 53.8533 69.5411 55.0797C70.8511 56.3247 73.0689 56.3802 74.4624 55.2283L78.4758 51.9392C79.8699 50.787 79.9546 48.8361 78.6446 47.6097Z" fill="#F49000"/>
<path d="M2.5211 56.0831H17.1586V53.9463L23.8543 60.0781C23.8966 60.1154 23.9599 60.1713 24.0022 60.2081C28.0154 63.8877 27.9098 69.7222 23.7487 73.2713C19.5877 76.8204 13.0187 76.6717 9.02667 73.0113C8.87885 72.8627 8.73098 72.7327 8.58311 72.584C3.93628 67.9567 1.86632 61.9363 2.5211 56.0831Z" fill="#4EC602"/>
<path fill-rule="evenodd" clip-rule="evenodd" d="M0.683472 56.6401C0.683472 55.3023 1.90855 54.2246 3.42933 54.2246H7.97058C9.49136 54.2246 10.7164 55.3023 10.7164 56.6401C10.7164 57.9782 9.49136 59.056 7.97058 59.056H3.42933C1.90855 59.056 0.683472 57.9782 0.683472 56.6401Z" fill="#4EC602"/>
<path fill-rule="evenodd" clip-rule="evenodd" d="M23.453 72.5093L32.8734 75.8539H60.015C64.113 73.5498 67.4503 70.1493 69.4147 65.8939C74.4206 55.0048 68.4428 42.5921 56.0444 38.1882L41.5546 33.041C29.1771 28.637 15.0676 33.8958 10.0616 44.8034C5.05571 55.7111 11.0543 68.1239 23.453 72.5093Z" fill="#58CC02"/>
<path fill-rule="evenodd" clip-rule="evenodd" d="M49.8766 26.6304C38.7664 29.5292 31.5849 30.9785 28.2898 30.9785C26.41 30.9785 24.4457 30.2724 22.3968 28.8602C18.4681 26.1472 12.7652 26.7419 9.68138 30.1981C8.43519 31.6104 7.73816 33.3384 7.73816 35.1223V52.2736C7.73816 61.4531 16.187 68.8859 26.6213 68.8859C29.3882 68.8859 32.113 68.3468 34.6265 67.3249C46.7928 69.4618 58.642 62.5309 61.0714 51.8277C61.3672 50.5454 61.5148 49.2445 61.5148 47.944V34.2675C61.5148 29.8636 57.4596 26.2959 52.4536 26.2959C51.5874 26.2959 50.7214 26.4074 49.8766 26.6304Z" fill="#58CC02"/>
<path d="M40.6675 72.0815C42.2516 71.3383 43.0965 69.8333 42.8219 68.3838C42.7585 68.0865 42.3783 67.9192 42.0615 68.0679L36.1051 70.8551C35.7882 71.0038 35.7249 71.3756 35.9784 71.5801C37.1823 72.602 39.0833 72.8065 40.6675 72.0815Z" fill="#89E219"/>
<path d="M42.0193 73.9222C41.9559 73.6249 41.5757 73.4758 41.2589 73.6249L36.4642 75.8731H41.7024C41.9982 75.2599 42.1249 74.5908 42.0193 73.9222Z" fill="#89E219"/>
<path d="M33.7817 72.2491C33.7183 71.9519 33.3381 71.8032 33.0212 71.9519L28.2054 74.2005L32.1552 75.6128C33.3592 74.8137 33.9929 73.5128 33.7817 72.2491Z" fill="#89E219"/>
<path fill-rule="evenodd" clip-rule="evenodd" d="M30.6767 38.1324C28.3533 40.3436 24.5936 39.9906 22.6504 38.1138C19.6511 35.2708 19.123 39.5446 21.0873 50.8983H32.3665C32.7889 40.9011 32.2186 36.6458 30.6767 38.1324Z" fill="#89E219"/>
<path fill-rule="evenodd" clip-rule="evenodd" d="M39.8648 34.8623H39.1255C33.5704 34.8623 29.0714 38.8203 29.0714 43.7073V49.0776C29.0714 53.9644 33.5704 57.9226 39.1255 57.9226H39.8436C45.3987 57.9226 49.8977 53.9644 49.8977 49.0776V43.7073C49.9188 38.8203 45.4198 34.8623 39.8648 34.8623Z" fill="#89E219"/>
<path d="M37.8793 31.2573L29.7262 39.0431C29.3038 39.4519 29.4517 40.1209 30.0431 40.3439C32.8523 41.4402 36.1896 40.827 38.3018 38.7644C40.414 36.7018 40.7519 33.7286 39.2312 31.3873C38.8932 30.9042 38.3018 30.8299 37.8793 31.2573Z" fill="#89E219"/>
<path d="M41.9347 33.097L33.9506 40.8829C33.5282 41.2917 33.676 41.9606 34.2675 42.1836C37.0766 43.2799 40.4139 42.6667 42.5261 40.6041C44.6384 38.5415 44.9763 35.5684 43.4555 33.2271C43.1176 32.7625 42.3572 32.6882 41.9347 33.097Z" fill="#89E219"/>
<path d="M15.7223 31.5363L22.3546 37.8355C22.6926 38.17 22.4814 38.7832 21.9322 39.0248C19.2708 40.2326 16.2715 39.9539 14.5606 38.2815C12.8498 36.6091 12.8498 33.9705 14.4761 31.7593C14.8352 31.3133 15.3844 31.2018 15.7223 31.5363Z" fill="#89E219"/>
<path d="M12.4907 33.3757L18.9541 39.6936C19.292 40.0281 19.0808 40.6413 18.5316 40.8829C15.8702 42.0907 12.8709 41.8119 11.16 40.1396C9.44912 38.4672 9.44912 35.8285 11.0755 33.6173C11.4557 33.1713 12.1528 33.0413 12.4907 33.3757Z" fill="#89E219"/>
<path fill-rule="evenodd" clip-rule="evenodd" d="M15.5956 34.8623C11.2233 34.8623 7.6748 37.9841 7.6748 41.8305V50.9731C7.6748 54.8194 11.2233 57.9413 15.5956 57.9413C19.9678 57.9413 23.5163 54.8194 23.5163 50.9731V41.8305C23.5163 37.9841 19.9678 34.8623 15.5956 34.8623Z" fill="#89E219"/>
<path fill-rule="evenodd" clip-rule="evenodd" d="M16.6306 38.1328C13.3567 38.1328 10.7164 40.4555 10.7164 43.3358V49.7653C10.7164 52.6453 13.3567 54.968 16.6306 54.968C19.9045 54.968 22.5448 52.6453 22.5448 49.7653V43.3358C22.5448 40.4741 19.8834 38.1328 16.6306 38.1328Z" fill="white"/>
<path fill-rule="evenodd" clip-rule="evenodd" d="M16.6094 41.7744C15.0253 41.7744 13.7368 42.9079 13.7368 44.3016V48.8356C13.7368 50.2293 15.0253 51.3629 16.6094 51.3629C18.1936 51.3629 19.482 50.2293 19.482 48.8356V44.3016C19.482 42.9079 18.1936 41.7744 16.6094 41.7744Z" fill="#122431"/>
<path d="M13.9904 47.1632C15.0402 47.1632 15.8913 46.4145 15.8913 45.4909C15.8913 44.5671 15.0402 43.8184 13.9904 43.8184C12.9405 43.8184 12.0894 44.5671 12.0894 45.4909C12.0894 46.4145 12.9405 47.1632 13.9904 47.1632Z" fill="white"/>
<path d="M7.92835 54.2246C6.06961 54.2432 4.5277 52.961 4.50657 51.3073C4.48545 49.6723 5.96401 48.3155 7.82275 48.2969C7.97057 48.2969 8.24515 48.2969 8.58311 48.2969C9.13227 48.3155 9.7237 48.3341 10.3574 48.3901C12.195 48.5387 14.0748 48.8173 15.8913 49.3005C17.7923 49.8023 19.5032 50.4528 21.0029 51.3446C22.5448 52.2551 22.9672 54.1132 21.9322 55.4696C20.8973 56.826 18.7851 57.1978 17.2431 56.2873C16.356 55.7669 15.2577 55.3396 13.9692 55.0051C12.6174 54.6519 11.1811 54.4291 9.74481 54.3178C9.23792 54.2805 8.7732 54.2432 8.37191 54.2246C8.11844 54.2246 7.97057 54.2246 7.92835 54.2246Z" fill="#89E219"/>
<path fill-rule="evenodd" clip-rule="evenodd" d="M9.85046 38.2808L20.6227 37.9463L24.8893 44.5057C22.3336 44.227 19.9468 44.0783 17.729 44.0783C15.5112 44.0783 12.9766 44.3757 10.1039 44.9517L9.85046 38.2808Z" fill="#89E219"/>
<path d="M8.68878 51.3999C8.05513 51.4931 7.46375 51.1027 7.35809 50.5454C7.25249 49.9877 7.69606 49.4677 8.32971 49.3745C9.5759 49.2072 10.6954 49.3372 11.6248 49.8017C12.1739 50.0808 12.364 50.7127 12.0472 51.1954C11.7304 51.6786 11.0122 51.8458 10.463 51.5672C10.0195 51.3627 9.42808 51.2886 8.68878 51.3999Z" fill="#9AF300"/>
<path fill-rule="evenodd" clip-rule="evenodd" d="M26.2199 49.7646C24.1288 49.7646 22.4391 51.2515 22.4391 53.091V59.2601C22.4391 61.0996 24.1288 62.5865 26.2199 62.5865C28.311 62.5865 30.0008 61.0996 30.0008 59.2601V53.091C30.0008 51.2515 28.311 49.7646 26.2199 49.7646Z" fill="#F49000"/>
<path fill-rule="evenodd" clip-rule="evenodd" d="M26.4312 50.3223C24.5935 50.3223 23.0939 51.6418 23.0939 53.2586V59.2418C23.0939 60.3941 24.15 61.3232 25.4595 61.3232C26.8325 61.3232 27.9942 60.4495 28.1842 59.2604L29.2615 53.2214C29.5149 51.8464 28.4377 50.5641 26.8747 50.3409C26.7269 50.3409 26.579 50.3223 26.4312 50.3223Z" fill="#CD7900"/>
<path fill-rule="evenodd" clip-rule="evenodd" d="M24.5513 60.4493C24.5513 60.7098 24.5725 60.9511 24.6358 61.2111C24.8893 61.3043 25.1639 61.3416 25.4596 61.3416C26.8325 61.3416 27.9942 60.4679 28.1844 59.2788L28.7124 56.3057C26.3678 56.547 24.5513 58.3125 24.5513 60.4493Z" fill="#FFCAFF"/>
<path d="M31.1836 52.6642C30.7612 50.4528 28.5434 48.8174 25.9243 48.8174C23.3051 48.8174 21.0873 50.4715 20.6648 52.6642L20.6437 52.8128L23.2418 53.5933L31.2259 52.8128L31.1836 52.6642Z" fill="#FFC200"/>
<path d="M26.748 50.955C27.1493 51.0664 27.5718 50.8805 27.6985 50.5273C27.8253 50.1746 27.6141 49.8028 27.2127 49.6914C26.2622 49.4128 25.2695 49.4128 24.319 49.6914C23.9177 49.8028 23.7064 50.1746 23.8332 50.5273C23.9599 50.8805 24.3824 51.0664 24.7837 50.955C25.4596 50.7505 26.0932 50.7505 26.748 50.955Z" fill="#FFDE00"/>
<path fill-rule="evenodd" clip-rule="evenodd" d="M39.1889 37.9473C35.0912 37.9473 31.7962 40.8646 31.7962 44.4509V48.4648C31.7962 52.0694 35.1124 54.9684 39.1889 54.9684C43.2655 54.9684 46.5816 52.0512 46.5816 48.4648V44.4509C46.5816 40.8646 43.2866 37.9473 39.1889 37.9473Z" fill="white"/>
<path fill-rule="evenodd" clip-rule="evenodd" d="M37.7527 41.7744C35.8306 41.7744 34.2887 43.1495 34.2887 44.8219V48.2779C34.2887 49.9693 35.8517 51.3256 37.7527 51.3256C39.6748 51.3256 41.2167 49.9506 41.2167 48.2779V44.8219C41.2167 43.1495 39.6748 41.7744 37.7527 41.7744Z" fill="#122431"/>
<path d="M35.1124 47.1639C36.1623 47.1639 37.0134 46.4153 37.0134 45.4917C37.0134 44.5681 36.1623 43.8193 35.1124 43.8193C34.0625 43.8193 33.2114 44.5681 33.2114 45.4917C33.2114 46.4153 34.0625 47.1639 35.1124 47.1639Z" fill="white"/>
<path d="M49.243 54.4482C51.1017 54.5782 52.7283 53.3705 52.8759 51.7164C53.024 50.0814 51.6511 48.6505 49.7711 48.5205C49.581 48.5018 49.2642 48.4832 48.8417 48.4646C48.1447 48.4459 47.3843 48.4277 46.5605 48.4277C44.1737 48.4277 41.787 48.5764 39.4635 48.9105C37.4781 49.1896 35.6616 49.6168 34.0141 50.1927C33.8873 50.23 33.148 50.4714 33.1903 50.4714C33.0635 50.5086 32.958 50.5459 32.8524 50.5832C32.4299 50.7318 32.0919 50.8618 31.7751 51.0105C30.1276 51.7909 29.5151 53.5932 30.4022 55.0427C31.2893 56.4923 33.3381 57.0309 34.9857 56.2505C35.0068 56.2318 35.1335 56.195 35.3236 56.1205C35.387 56.1018 35.4714 56.0646 35.5771 56.0459C35.6404 56.0277 35.7038 56.0091 35.8094 55.9718C35.8306 55.9718 35.9995 55.9159 36.0418 55.8973C36.253 55.8232 36.4008 55.7859 36.5276 55.7305C37.6681 55.3214 39.0411 55.0241 40.583 54.8014C42.5051 54.5223 44.5539 54.3923 46.6028 54.3923C47.3209 54.3923 47.9757 54.4109 48.5671 54.4296C48.7783 54.4296 48.9473 54.4482 49.0952 54.4482C49.1797 54.4482 49.2219 54.4482 49.243 54.4482Z" fill="#89E219"/>
<path fill-rule="evenodd" clip-rule="evenodd" d="M47.1731 38.2071L34.7322 37.4639L30.191 44.4321C32.789 44.079 35.1546 43.9675 37.3091 44.0976C39.4635 44.2277 42.5685 44.6551 46.645 45.417L47.1731 38.2071Z" fill="#89E219"/>
<path d="M45.4833 51.4009C46.1169 51.4936 46.7084 51.1036 46.814 50.5459C46.9196 49.9886 46.476 49.4682 45.8424 49.3754C44.5962 49.2082 43.4767 49.3382 42.5473 49.8027C41.9981 50.0814 41.808 50.7132 42.1249 51.1964C42.4417 51.6795 43.1598 51.8468 43.709 51.5682C44.1526 51.3636 44.744 51.2891 45.4833 51.4009Z" fill="#9AF300"/>
<path fill-rule="evenodd" clip-rule="evenodd" d="M36.3797 52.7383H44.6173L42.1883 55.7115H36.3797V52.7383Z" fill="#8EE000"/>
<path fill-rule="evenodd" clip-rule="evenodd" d="M42.7585 56.3617C42.7585 55.024 43.9836 53.9463 45.5044 53.9463H58.8113C60.3319 53.9463 61.5571 55.024 61.5571 56.3617C61.5571 57.6995 60.3319 58.7777 58.8113 58.7777H45.5044C43.9836 58.7777 42.7585 57.6995 42.7585 56.3617Z" fill="#4EC602"/>
<path d="M44.7862 54.7822H59.7615L60.8181 65.5413C60.8181 65.5968 60.8392 65.6713 60.8392 65.7272C61.3461 70.8 57.1004 75.3895 51.334 75.8354C45.5677 76.2818 40.5407 72.4163 40.0337 67.3436C40.0126 67.139 39.9915 66.9536 39.9915 66.7677C39.7803 62.6609 40.942 58.6286 43.0965 55.2095C43.2021 55.0236 44.7862 54.7822 44.7862 54.7822Z" fill="#4EC602"/>
<path fill-rule="evenodd" clip-rule="evenodd" d="M38.4919 4.6105C37.9638 3.77433 37.9005 2.73374 38.4285 1.8418C39.2734 0.373824 41.3856 -0.202218 43.1176 0.578227C44.1948 1.06135 44.8708 1.93471 45.0397 2.90097C46.0114 2.455 47.2153 2.43642 48.2925 2.90097C50.0245 3.68142 50.7427 5.50246 49.8978 6.97041C49.412 7.8066 48.5248 8.3455 47.5321 8.51273L42.5896 9.66482C41.6602 9.88778 40.7097 9.46041 40.3507 8.67996L38.4919 4.6105Z" fill="#FF6A35"/>
<path fill-rule="evenodd" clip-rule="evenodd" d="M10.8854 19.2537C9.63924 18.8635 8.62535 17.9716 8.26628 16.7823C7.6749 14.8312 9.0478 12.8244 11.329 12.2855C12.7442 11.951 14.1804 12.2669 15.1943 13.0102C15.659 11.9139 16.7151 11.0219 18.1303 10.6874C20.4115 10.1485 22.756 11.3006 23.3474 13.2332C23.6854 14.3481 23.3897 15.463 22.6504 16.3364L19.0808 21.1677C18.5527 21.8738 17.5177 22.1339 16.6517 21.7623L10.8854 19.2537Z" fill="#FF6A35"/>
<path fill-rule="evenodd" clip-rule="evenodd" d="M43.0543 24.2704C43.5612 24.0846 43.9414 23.7129 44.047 23.2113C44.2371 22.4122 43.6457 21.6132 42.6952 21.4459C42.1249 21.3344 41.5335 21.4831 41.1533 21.8176C40.9421 21.3716 40.4774 21.0372 39.9071 20.9257C38.9777 20.7584 38.0484 21.2601 37.8583 22.0592C37.7527 22.5237 37.9005 22.9697 38.2173 23.3042L39.5903 24.9579C39.9283 25.3668 40.5619 25.4969 41.0688 25.2367L43.0543 24.2704Z" fill="#FFAB8D"/>
</g>
<defs>
<clipPath id="clip0_188_923">
<rect width="80" height="80" fill="white"/>
</clipPath>
</defs>
</svg>
