<svg width="80" height="80" viewBox="0 0 80 80" fill="none" xmlns="http://www.w3.org/2000/svg">
<g clip-path="url(#clip0_175_923)">
<path opacity="0.3" fill-rule="evenodd" clip-rule="evenodd" d="M2.73263 74.3271H77.2675C78.68 74.3271 79.875 75.4976 79.875 76.881C79.875 78.2644 78.68 79.4348 77.2675 79.4348H2.73263C1.32016 79.4348 0.125 78.2644 0.125 76.881C0.125 75.4976 1.32016 74.3271 2.73263 74.3271Z" fill="#AFAFAF"/>
<path fill-rule="evenodd" clip-rule="evenodd" d="M7.18728 67.4102H25.658C27.6137 67.4102 29.2435 69.0065 29.2435 70.9215C29.2435 72.8372 27.6137 74.4335 25.658 74.4335H7.18728C5.23158 74.4335 3.60181 72.8372 3.60181 70.9215C3.60181 69.0065 5.23158 67.4102 7.18728 67.4102Z" fill="#58CC02"/>
<path fill-rule="evenodd" clip-rule="evenodd" d="M54.5594 67.4102H73.0301C74.9857 67.4102 76.6157 69.0065 76.6157 70.9215C76.6157 72.8372 74.9857 74.4335 73.0301 74.4335H54.5594C52.6036 74.4335 50.9739 72.8372 50.9739 70.9215C50.9739 69.0065 52.495 67.4102 54.5594 67.4102Z" fill="#58CC02"/>
<path fill-rule="evenodd" clip-rule="evenodd" d="M72.9212 74.3277V11.3316C72.9212 9.84177 72.5956 8.35199 72.0518 6.96867C69.5531 1.43519 63.0343 -1.11871 57.2755 1.32878C49.018 4.8404 43.2595 6.64941 40.1086 6.64941C36.9577 6.64941 31.0906 4.8404 22.7244 1.32878C21.3119 0.690299 19.7908 0.477476 18.2697 0.477476C12.0766 0.477476 7.07861 5.37246 7.07861 11.438V74.5406H72.9212V74.3277Z" fill="#58CC02"/>
<path d="M51.4085 55.0664H43.151C42.7163 55.0664 42.3904 55.4921 42.499 55.9177C43.151 57.8331 45.1066 59.1101 47.2797 59.1101C49.4527 59.1101 51.4085 57.8331 52.0603 55.9177C52.169 55.4921 51.843 55.0664 51.4085 55.0664ZM37.6097 55.9177C37.7184 55.4921 37.3925 55.0664 36.9578 55.0664H28.7003C28.2657 55.0664 27.9398 55.4921 28.0484 55.9177C28.7003 57.8331 30.6561 59.1101 32.8291 59.1101C35.0021 59.1101 36.9578 57.8331 37.6097 55.9177ZM44.2375 61.9831H35.8713C35.4367 61.9831 35.1108 62.4089 35.2194 62.8348C35.8713 64.7499 37.827 66.0268 40.0001 66.0268C42.1731 66.0268 44.1288 64.7499 44.7807 62.8348C44.998 62.4089 44.6721 61.9831 44.2375 61.9831Z" fill="#89E219"/>
<path fill-rule="evenodd" clip-rule="evenodd" d="M12.5112 62.0895C14.2496 60.4934 16.9659 60.5998 18.487 62.3024L23.2677 67.3036C24.8974 69.0064 24.7888 71.6667 23.0504 73.1566C21.3119 74.7529 18.5957 74.6464 17.0745 72.9436L12.2939 67.9424C10.7727 66.3461 10.8814 63.6858 12.5112 62.0895Z" fill="#F49000"/>
<path fill-rule="evenodd" clip-rule="evenodd" d="M67.4887 62.0895C65.7499 60.4934 63.0337 60.5998 61.5127 62.3024L56.7321 67.3036C55.1023 69.0064 55.211 71.6667 56.9494 73.1566C58.6878 74.7529 61.4041 74.6464 62.9249 72.9436L67.7062 67.9424C69.3355 66.3461 69.2268 63.6858 67.4887 62.0895Z" fill="#F49000"/>
<path d="M25.5496 7.07453L35.4368 17.6094C35.9801 18.1414 35.7628 19.0992 35.0022 19.4184C31.5254 20.9081 27.5053 20.1633 24.8976 17.3966C22.29 14.6298 21.9641 10.5861 23.8111 7.39373C24.3544 6.54247 25.0063 6.43601 25.5496 7.07453Z" fill="#89E219"/>
<path fill-rule="evenodd" clip-rule="evenodd" d="M33.6982 15.6943C36.9578 19.3124 43.0422 19.3124 46.3018 15.6943C46.3018 24.2074 46.3018 36.8705 46.3018 36.7641C46.3018 36.7641 42.0644 36.7641 33.6982 36.7641C33.6982 30.5921 33.6982 23.5689 33.6982 15.6943Z" fill="#89E219"/>
<path d="M20.5516 9.62824L30.2215 20.1631C30.7647 20.6951 30.5474 21.6529 29.7869 21.9721C26.3101 23.4618 22.2899 22.717 19.6823 19.9503C17.0747 17.1835 16.7487 13.1399 18.5958 9.94744C19.1391 9.09618 20.1169 8.98972 20.5516 9.62824Z" fill="#89E219"/>
<path fill-rule="evenodd" clip-rule="evenodd" d="M23.9197 11.8633H24.6802C31.5253 11.8633 37.0664 17.2904 37.0664 23.9944V32.0817C37.0664 38.7857 31.5253 44.2128 24.6802 44.2128H23.9197C17.0746 44.2128 11.5334 38.7857 11.5334 32.0817V23.9944C11.5334 17.2904 17.0746 11.8633 23.9197 11.8633Z" fill="#89E219"/>
<path d="M54.3421 7.07453L44.6721 17.6094C44.1289 18.1414 44.3461 19.0992 45.1067 19.4184C48.5836 20.9081 52.6036 20.1633 55.2113 17.3966C57.819 14.6298 58.1449 10.5861 56.2978 7.39373C55.8632 6.54247 54.8853 6.43601 54.3421 7.07453Z" fill="#89E219"/>
<path d="M59.2313 9.62824L49.5613 20.1631C49.018 20.6951 49.2354 21.6529 49.9959 21.9721C53.4727 23.4618 57.4928 22.717 60.1005 19.9503C62.7082 17.1835 63.0338 13.1399 61.187 9.94744C60.7524 9.09618 59.7745 8.98972 59.2313 9.62824Z" fill="#89E219"/>
<path fill-rule="evenodd" clip-rule="evenodd" d="M55.6458 11.5439H56.4063C63.2513 11.5439 68.7926 16.971 68.7926 23.675V31.7623C68.7926 38.4663 63.2513 43.8934 56.4063 43.8934H55.7544C48.9094 43.8934 43.3681 38.4663 43.3681 31.8687L43.2595 23.7814C43.2595 17.0774 48.6921 11.6503 55.6458 11.5439Z" fill="#89E219"/>
<path fill-rule="evenodd" clip-rule="evenodd" d="M55.894 16.2148C60.892 16.2148 64.9119 20.1521 64.9119 25.0471V30.8998C64.9119 35.7948 60.892 39.7321 55.894 39.7321C50.896 39.7321 46.876 35.7948 46.876 30.8998V25.0471C46.876 20.1521 50.896 16.2148 55.894 16.2148Z" fill="white"/>
<path fill-rule="evenodd" clip-rule="evenodd" d="M55.8942 18.4492C60.0229 18.4492 63.3913 21.748 63.3913 25.7917V30.5802C63.3913 34.6239 60.0229 37.9227 55.8942 37.9227C51.7654 37.9227 48.3972 34.6239 48.3972 30.5802V25.7917C48.3972 21.748 51.7654 18.4492 55.8942 18.4492Z" fill="#122431"/>
<path d="M52.4171 29.3039C54.9374 29.3039 56.9804 27.3029 56.9804 24.8345C56.9804 22.3662 54.9374 20.3652 52.4171 20.3652C49.8968 20.3652 47.8538 22.3662 47.8538 24.8345C47.8538 27.3029 49.8968 29.3039 52.4171 29.3039Z" fill="white"/>
<path fill-rule="evenodd" clip-rule="evenodd" d="M64.9118 29.5162C64.3687 28.6648 63.3912 28.0264 62.1958 28.0264C60.4574 28.0264 58.9363 29.5162 58.9363 31.2187C58.9363 32.9213 60.3487 34.4111 62.1958 34.4111C63.065 34.4111 63.9343 33.9854 64.4775 33.4534C64.695 32.6021 64.9118 31.7508 64.9118 30.7931V29.5162Z" fill="white"/>
<path opacity="0.7238" fill-rule="evenodd" clip-rule="evenodd" d="M64.6068 33.1974C63.5799 36.9704 60.0799 39.7321 55.8941 39.7321C51.6082 39.7321 48.0415 36.8369 47.1121 32.9254C47.8378 32.4118 48.7881 32.1768 49.9182 32.1768C50.8961 32.1768 51.6567 32.496 52.7432 33.0281C54.047 33.6665 55.7854 34.4115 57.7412 34.305C60.4574 34.305 61.8699 33.8794 62.5218 33.4537C63.1699 33.0728 63.9343 32.9949 64.6068 33.1974Z" fill="#34A9FF"/>
<path fill-rule="evenodd" clip-rule="evenodd" d="M23.6337 16.2148C28.6317 16.2148 32.6518 20.1521 32.6518 25.0471V30.8998C32.6518 35.7948 28.6317 39.7321 23.6337 39.7321C18.6358 39.7321 14.6157 35.7948 14.6157 30.8998V25.0471C14.6157 20.1521 18.6358 16.2148 23.6337 16.2148Z" fill="white"/>
<path fill-rule="evenodd" clip-rule="evenodd" d="M23.6339 18.4492C27.7627 18.4492 31.1308 21.748 31.1308 25.7917V30.5802C31.1308 34.6239 27.7627 37.9227 23.6339 37.9227C19.5052 37.9227 16.137 34.6239 16.137 30.5802V25.7917C16.137 21.748 19.5052 18.4492 23.6339 18.4492Z" fill="#122431"/>
<path d="M20.1571 29.3039C22.6773 29.3039 24.7204 27.3029 24.7204 24.8345C24.7204 22.3662 22.6773 20.3652 20.1571 20.3652C17.6368 20.3652 15.5938 22.3662 15.5938 24.8345C15.5938 27.3029 17.6368 29.3039 20.1571 29.3039Z" fill="white"/>
<path fill-rule="evenodd" clip-rule="evenodd" d="M32.6518 29.5162C32.1086 28.6648 31.1308 28.0264 29.9356 28.0264C28.1972 28.0264 26.676 29.5162 26.676 31.2187C26.676 32.9213 28.0885 34.4111 29.9356 34.4111C30.8048 34.4111 31.674 33.9854 32.2173 33.4534C32.4346 32.6021 32.6518 31.7508 32.6518 30.7931V29.5162Z" fill="white"/>
<path opacity="0.7238" fill-rule="evenodd" clip-rule="evenodd" d="M32.436 32.839C31.5389 36.7943 27.9512 39.7322 23.6339 39.7322C19.5309 39.7322 16.0869 37.0787 14.9851 33.4203C15.728 33.0843 16.5819 33.1193 17.3322 33.5601C17.984 33.9858 19.3965 34.4114 22.1128 34.4114C24.016 34.4114 25.5498 33.7783 26.7994 33.2625C26.9052 33.2189 27.0089 33.176 27.1107 33.1345C27.3375 33.0457 27.5501 32.9568 27.7534 32.8718C28.5242 32.5497 29.1619 32.2832 29.9357 32.2832C30.9134 32.2832 31.7564 32.459 32.436 32.839Z" fill="#34A9FF"/>
<path d="M43.042 44.4252C42.7161 44.4252 42.3901 44.3188 42.1728 44.106L40.2171 41.9777L38.2614 43.9995C37.8268 44.4252 37.0662 44.4252 36.6316 43.9995C36.197 43.5739 36.197 42.829 36.6316 42.4033L38.9133 40.0623C39.2392 39.743 39.7825 39.5302 40.3258 39.4238C40.869 39.4238 41.3036 39.6366 41.7382 39.9559L44.0199 42.2969C44.4545 42.7226 44.4545 43.4675 44.0199 43.8931C43.5853 44.3188 43.2593 44.4252 43.042 44.4252Z" fill="#3EBE00"/>
<path d="M33.6982 33.5717C34.2415 30.805 36.7405 28.5703 40.1087 28.5703C43.1509 28.5703 45.8672 30.6986 46.4104 33.5717V34.2102C46.4104 34.7422 45.9758 35.2743 45.3239 35.2743C45.1066 35.2743 44.9979 35.2743 44.7807 35.1679C43.1509 34.3166 41.5211 33.7845 39.8914 33.7845C38.2616 33.7845 36.7405 34.2102 35.2194 35.0615C34.6761 35.3807 34.1329 35.1679 33.8069 34.6358C33.8069 34.5294 33.6982 34.3166 33.6982 34.2102V33.5717Z" fill="#FFC200"/>
<path d="M41.1949 31.2308C41.0863 31.2308 40.9776 31.2308 40.869 31.1244C40.1084 30.9116 39.4565 30.8051 38.696 31.1244C38.2614 31.3372 37.7181 31.018 37.5008 30.5923C37.2835 30.1666 37.6094 29.6346 38.0441 29.4218C39.2393 28.9961 40.3258 28.9961 41.5209 29.4218C41.9555 29.6346 42.2814 30.1666 42.0642 30.5923C41.9555 31.018 41.6296 31.2308 41.1949 31.2308Z" fill="#FFDE00"/>
<path d="M37.6095 37.8286C36.849 37.8286 36.0884 37.403 35.6538 36.7645C35.0019 35.7004 35.3278 34.317 36.4144 33.5722C38.9133 32.0824 41.521 32.0824 43.9113 33.6786C44.9978 34.4234 45.2151 35.8068 44.5632 36.8709C43.8027 37.935 42.3902 38.1479 41.3037 37.5094C40.6518 37.0838 39.9998 36.8709 38.9133 37.6158C38.4788 37.7222 38.0442 37.8286 37.6095 37.8286Z" fill="#F49000"/>
</g>
<defs>
<clipPath id="clip0_175_923">
<rect width="80" height="80" fill="white"/>
</clipPath>
</defs>
</svg>
