<svg width="185" height="162" viewBox="0 0 185 162" fill="none" xmlns="http://www.w3.org/2000/svg">
<g clip-path="url(#clip0_181_998)">
<path fill-rule="evenodd" clip-rule="evenodd" d="M175.991 1.22715C168.339 -1.96376 159.7 1.47261 156.491 8.95897L132.301 65.4135C129.093 72.8999 132.548 81.4908 140.077 84.6817H140.2C147.728 87.8726 156.368 84.3135 159.576 76.8271L183.766 20.3726C187.098 13.009 183.519 4.41807 175.991 1.22715Z" fill="#6EBE44"/>
<path fill-rule="evenodd" clip-rule="evenodd" d="M9.01024 1.22813C16.662 -1.96278 25.3011 1.47358 28.5099 8.95995L52.6994 65.4145C55.9082 72.9008 52.4525 81.4918 44.9242 84.6827H44.8008C37.2724 87.8736 28.6333 84.3145 25.4245 76.8281L1.23506 20.4963C-1.97375 13.0099 1.48189 4.41904 9.01024 1.22813Z" fill="#6EBE44"/>
<path fill-rule="evenodd" clip-rule="evenodd" d="M29.99 86.6454C35.9139 57.6817 61.7078 35.959 92.6851 35.959C123.662 35.959 149.456 57.6817 155.38 86.6454H29.99Z" fill="#6EBE44"/>
<path fill-rule="evenodd" clip-rule="evenodd" d="M43.0718 86.6454C48.6255 65.0454 68.4954 49.0908 92.0678 49.0908C115.64 49.0908 135.51 65.0454 141.064 86.6454H43.0718Z" fill="#9CCB3B"/>
<path fill-rule="evenodd" clip-rule="evenodd" d="M77.7519 75.9688H87.9954C90.9574 75.9688 93.3023 78.3005 93.3023 81.246C93.3023 84.1914 90.9574 86.5232 87.9954 86.5232H77.7519C74.79 86.5232 72.4451 84.1914 72.4451 81.246C72.4451 78.4232 74.79 75.9688 77.7519 75.9688Z" fill="#58A746"/>
<path fill-rule="evenodd" clip-rule="evenodd" d="M98.1155 75.9688H108.359C111.321 75.9688 113.666 78.3005 113.666 81.246C113.666 84.1914 111.321 86.5232 108.359 86.5232H98.1155C95.1535 86.5232 92.8086 84.1914 92.8086 81.246C92.6852 78.4232 95.1535 75.9688 98.1155 75.9688Z" fill="#58A746"/>
<path d="M108.482 44.1825C117.548 44.1825 124.896 36.8746 124.896 27.8598C124.896 18.845 117.548 11.5371 108.482 11.5371C99.4168 11.5371 92.0679 18.845 92.0679 27.8598C92.0679 36.8746 99.4168 44.1825 108.482 44.1825Z" fill="white"/>
<path d="M108.482 44.1815C117.548 44.1815 124.896 36.8736 124.896 27.8588C124.896 18.844 117.548 11.5361 108.482 11.5361C99.4168 11.5361 92.0679 18.844 92.0679 27.8588C92.0679 36.8736 99.4168 44.1815 108.482 44.1815Z" fill="white"/>
<path d="M108.482 46.2674C98.2387 46.2674 89.8464 37.9219 89.8464 27.8583C89.8464 17.7946 98.2387 9.44922 108.482 9.44922C118.726 9.44922 127.118 17.6719 127.118 27.8583C127.118 38.0446 118.849 46.2674 108.482 46.2674ZM108.482 13.7446C100.584 13.7446 94.2894 20.0037 94.2894 27.8583C94.2894 35.7128 100.707 41.9719 108.482 41.9719C116.257 41.9719 122.798 35.5901 122.798 27.8583C122.798 20.1264 116.381 13.7446 108.482 13.7446Z" fill="#6FBE44"/>
<path d="M75.6538 44.1825C84.7191 44.1825 92.0681 36.8746 92.0681 27.8598C92.0681 18.845 84.7191 11.5371 75.6538 11.5371C66.5884 11.5371 59.2395 18.845 59.2395 27.8598C59.2395 36.8746 66.5884 44.1825 75.6538 44.1825Z" fill="white"/>
<path d="M75.6538 44.1815C84.7191 44.1815 92.0681 36.8736 92.0681 27.8588C92.0681 18.844 84.7191 11.5361 75.6538 11.5361C66.5884 11.5361 59.2395 18.844 59.2395 27.8588C59.2395 36.8736 66.5884 44.1815 75.6538 44.1815Z" fill="white"/>
<path d="M75.6538 46.2674C65.4103 46.2674 57.0181 37.9219 57.0181 27.8583C57.0181 17.7946 65.4103 9.44922 75.6538 9.44922C85.8973 9.44922 94.2896 17.6719 94.2896 27.8583C94.2896 38.0446 85.8973 46.2674 75.6538 46.2674ZM75.6538 13.7446C67.7552 13.7446 61.461 20.0037 61.461 27.8583C61.461 35.7128 67.8786 41.9719 75.6538 41.9719C83.429 41.9719 89.8466 35.5901 89.8466 27.8583C89.8466 20.1264 83.429 13.7446 75.6538 13.7446Z" fill="#6FBE44"/>
<path fill-rule="evenodd" clip-rule="evenodd" d="M70.2235 21.6006C72.8152 21.6006 74.9133 23.6869 74.9133 26.2642V29.3324C74.9133 31.9096 72.8152 33.996 70.2235 33.996C67.6318 33.996 65.5337 31.9096 65.5337 29.3324V26.2642C65.5337 23.6869 67.6318 21.6006 70.2235 21.6006Z" fill="#4C4B4C"/>
<path fill-rule="evenodd" clip-rule="evenodd" d="M113.913 21.6006C116.504 21.6006 118.602 23.6869 118.602 26.2642V29.3324C118.602 31.9096 116.504 33.996 113.913 33.996C111.321 33.996 109.223 31.9096 109.223 29.3324V26.2642C109.223 23.6869 111.321 21.6006 113.913 21.6006Z" fill="#4C4B4C"/>
<path fill-rule="evenodd" clip-rule="evenodd" d="M10.7371 75.9688H32.9519C35.9139 75.9688 38.2588 78.3005 38.2588 81.246C38.2588 84.1914 35.9139 86.5232 32.9519 86.5232H10.7371C7.77511 86.5232 5.43022 84.1914 5.43022 81.246C5.3068 78.4232 7.77511 75.9688 10.7371 75.9688Z" fill="#58A746"/>
<path fill-rule="evenodd" clip-rule="evenodd" d="M151.924 75.9688H174.139C177.101 75.9688 179.446 78.3005 179.446 81.246C179.446 84.1914 177.101 86.5232 174.139 86.5232H151.924C148.962 86.5232 146.618 84.1914 146.618 81.246C146.494 78.4232 148.962 75.9688 151.924 75.9688Z" fill="#58A746"/>
<path fill-rule="evenodd" clip-rule="evenodd" d="M80.7136 127.637H106.754C109.099 127.637 111.074 129.6 111.074 131.932V157.705C111.074 160.037 109.099 162 106.754 162H80.7136C78.3687 162 76.394 160.037 76.394 157.705V131.932C76.394 129.6 78.3687 127.637 80.7136 127.637Z" fill="#6FBE44"/>
<path fill-rule="evenodd" clip-rule="evenodd" d="M36.5307 127.637H62.5714C64.9163 127.637 66.891 129.6 66.891 131.932V157.705C66.891 160.037 64.9163 162 62.5714 162H36.5307C34.1858 162 32.2112 160.037 32.2112 157.705V131.932C32.2112 129.6 34.1858 127.637 36.5307 127.637Z" fill="#58A746"/>
<path fill-rule="evenodd" clip-rule="evenodd" d="M124.033 127.637H150.073C152.418 127.637 154.393 129.6 154.393 131.932V157.705C154.393 160.037 152.418 162 150.073 162H124.033C121.688 162 119.713 160.037 119.713 157.705V131.932C119.713 129.6 121.688 127.637 124.033 127.637Z" fill="#9CCB3B"/>
</g>
<defs>
<clipPath id="clip0_181_998">
<rect width="185" height="162" fill="white"/>
</clipPath>
</defs>
</svg>
