<svg width="146" height="307" viewBox="0 0 146 307" fill="none" xmlns="http://www.w3.org/2000/svg">
<path d="M108.926 40.8301H54.8633V73.9082H108.926V40.8301Z" fill="#3D3D3D"/>
<path d="M64.6545 69.3285C59.9179 73.8467 52.4154 73.6697 47.8972 68.9331L34.9768 55.3881C30.4586 50.6516 30.6357 43.1491 35.3722 38.6309L49.6182 25.0418C54.3548 20.5236 61.8573 20.7006 66.3755 25.4372L79.2959 38.9821C83.8141 43.7187 83.637 51.2212 78.9004 55.7394L64.6545 69.3285Z" fill="#3D3D3D"/>
<path d="M104.431 69.0824C109.168 73.6006 116.671 73.4236 121.189 68.687L134.109 55.1421C138.627 50.4055 138.45 42.903 133.714 38.3848L119.468 24.7957C114.731 20.2775 107.229 20.4545 102.71 25.1911L89.7901 38.736C85.2719 43.4726 85.4489 50.9751 90.1855 55.4933L104.431 69.0824Z" fill="#3D3D3D"/>
<path d="M60.8594 21.8319C60.8594 15.286 66.1659 9.97949 72.7118 9.97949H95.6008C102.147 9.97949 107.453 15.286 107.453 21.8319V42.5868C107.453 49.1328 102.147 54.4393 95.6008 54.4393H72.7118C66.1659 54.4393 60.8594 49.1328 60.8594 42.5868V21.8319Z" fill="#3D3D3D"/>
<path d="M97.3028 130.255H70.5039V145.888H97.3028V130.255Z" fill="#FDB02A"/>
<path d="M109.819 69.9521C114.834 69.9521 118.898 74.017 118.898 79.0313V120.569C118.898 126.461 114.122 131.237 108.23 131.237H60.7444C54.8525 131.237 50.0762 126.461 50.0762 120.569V79.0313C50.0762 74.017 54.1411 69.9521 59.1555 69.9521H109.819Z" fill="#A46648"/>
<path d="M73.3953 83.0059H73.3953C68.5559 83.0059 64.6328 86.929 64.6328 91.7683V97.227C64.6328 102.066 68.5559 105.989 73.3953 105.989H73.3953C78.2347 105.989 82.1578 102.066 82.1578 97.227V91.7683C82.1578 86.929 78.2347 83.0059 73.3953 83.0059Z" fill="white"/>
<path d="M95.8797 83.0059H95.8797C91.0403 83.0059 87.1172 86.929 87.1172 91.7683V97.227C87.1172 102.066 91.0403 105.989 95.8797 105.989H95.8797C100.719 105.989 104.642 102.066 104.642 97.227V91.7683C104.642 86.929 100.719 83.0059 95.8797 83.0059Z" fill="white"/>
<path fill-rule="evenodd" clip-rule="evenodd" d="M73.0426 93.6343C74.788 93.6343 76.2029 92.2194 76.2029 90.4741C76.2029 89.7419 75.9539 89.0679 75.5359 88.5321C75.7734 88.4867 76.0185 88.4629 76.2691 88.4629C78.4111 88.4629 80.1476 90.1994 80.1476 92.3414V97.2254C80.1476 99.3674 78.4111 101.104 76.2691 101.104C74.1271 101.104 72.3906 99.3674 72.3906 97.2254V93.567C72.601 93.6111 72.8191 93.6343 73.0426 93.6343Z" fill="#3D3D3D"/>
<path fill-rule="evenodd" clip-rule="evenodd" d="M89.129 93.6346C90.8743 93.6346 92.2892 92.2197 92.2892 90.4744C92.2892 89.8072 92.0825 89.1883 91.7296 88.6783C92.1297 88.5388 92.5597 88.4629 93.0074 88.4629C95.1494 88.4629 96.8859 90.1994 96.8859 92.3414V97.2254C96.8859 99.3674 95.1494 101.103 93.0074 101.103C90.8654 101.103 89.1289 99.3674 89.1289 97.2254L89.129 93.6346Z" fill="#3D3D3D"/>
<path d="M81.6846 105.973C81.6846 107.555 82.9672 108.838 84.5494 108.838C86.1315 108.838 87.4142 107.555 87.4142 105.973C87.4142 104.391 84.6687 100.721 84.5494 100.721C84.43 100.721 81.6846 104.391 81.6846 105.973Z" fill="#86401F"/>
<path d="M82.3982 64.7935C83.0218 57.4975 89.4418 52.0885 96.7377 52.712L96.4193 56.438C95.7958 63.734 89.3758 69.143 82.0798 68.5195L82.3982 64.7935Z" fill="#FDB02A"/>
<path d="M72.6326 56.3081C73.2561 63.6041 79.6762 69.0131 86.9721 68.3896L86.6537 64.6635C86.0301 57.3676 79.6101 51.9585 72.3142 52.5821L72.6326 56.3081Z" fill="#FDB02A"/>
<path d="M82.2236 153.545L64.4465 200.244C62.7437 204.718 57.7371 206.963 53.264 205.261L53.264 205.261C48.7909 203.558 46.5451 198.551 48.2479 194.078L66.025 147.379C67.7278 142.906 72.7344 140.66 77.2075 142.363C81.6807 144.066 83.9264 149.072 82.2236 153.545Z" fill="#A46648"/>
<path d="M67.3505 253.684C66.9006 255.576 65.2106 256.912 63.266 256.912H45.9584C43.2064 256.912 41.1986 254.308 41.8979 251.646L62.5031 173.218C63.5237 169.333 67.0351 166.625 71.0515 166.625H84.1355C86.1333 166.625 87.6072 168.49 87.1451 170.434L67.3505 253.684Z" fill="#1CB0F6"/>
<path d="M79.2091 252.717C79.2115 255.034 81.0904 256.912 83.4074 256.912H101.932C104.293 256.912 106.189 254.966 106.129 252.606L104.114 173.643C103.991 168.851 100.072 165.03 95.2779 165.03H83.3235C81.0032 165.03 79.1229 166.912 79.1252 169.232L79.2091 252.717Z" fill="#1CB0F6"/>
<path d="M99.8565 160.882H67.9531V167.582H99.8565V160.882Z" fill="#FF4B4B"/>
<path d="M62.8477 155C62.8477 145.386 70.6414 137.593 80.2555 137.593H89.1475C98.7616 137.593 106.555 145.386 106.555 155C106.555 158.777 103.494 161.839 99.7166 161.839H69.6864C65.9095 161.839 62.8477 158.777 62.8477 155Z" fill="#FDB02A"/>
<path d="M85.8682 103.815H83.2464C81.6174 103.815 80.2969 105.136 80.2969 106.765V106.765C80.2969 108.394 81.6174 109.714 83.2464 109.714H85.8682C87.4972 109.714 88.8177 108.394 88.8177 106.765V106.765C88.8177 105.136 87.4972 103.815 85.8682 103.815Z" fill="#86401F"/>
<path d="M105.601 261.697H88.0537C85.7631 261.697 83.9062 263.554 83.9062 265.845C83.9062 268.135 85.7631 269.992 88.0537 269.992H105.601C107.891 269.992 109.748 268.135 109.748 265.845C109.748 263.554 107.891 261.697 105.601 261.697Z" fill="#FF4B4B"/>
<path d="M53.917 261.697H36.3701C34.0795 261.697 32.2227 263.554 32.2227 265.845C32.2227 268.135 34.0795 269.992 36.3701 269.992H53.917C56.2076 269.992 58.0645 268.135 58.0645 265.845C58.0645 263.554 56.2076 261.697 53.917 261.697Z" fill="#FF4B4B"/>
<path d="M76.2461 167.582H82.9458V185.693C82.9458 186.791 82.0555 187.681 80.9571 187.681H78.2348C77.1365 187.681 76.2461 186.791 76.2461 185.693V167.582Z" fill="#3CC0FF"/>
<path d="M45.8164 66.6748H85.7988V70.5942L49.7862 89.6155L45.8164 66.6748Z" fill="#FDB02A"/>
<path d="M122.828 66.6748H82.8457V70.5942L118.858 89.6155L122.828 66.6748Z" fill="#FDB02A"/>
<path d="M74.3336 161.839H70.8242V167.581H74.3336V161.839Z" fill="#1CB0F6"/>
<path d="M90.2867 161.839H86.7773V168.858H90.2867V161.839Z" fill="#1CB0F6"/>
<path d="M80.5575 108.758C77.5359 103.726 70.1709 101.863 63.1836 103.726L64.6944 108.758C71.3669 110.125 82.9636 112.766 80.5575 108.758Z" fill="#A46648"/>
<path d="M73.9844 110.623C75.1974 112.856 77.9016 115.716 83.4847 115.716" stroke="#884727" stroke-width="1.96657" stroke-linecap="round"/>
<path d="M49.9257 105.052C54.2426 105.052 57.7421 101.552 57.7421 97.2353C57.7421 92.9184 54.2426 89.4189 49.9257 89.4189C45.6089 89.4189 42.1094 92.9184 42.1094 97.2353C42.1094 101.552 45.6089 105.052 49.9257 105.052Z" fill="#A46648"/>
<path d="M100.314 140.497L116.483 144.878C121.103 146.13 123.833 150.89 122.582 155.509L122.582 155.509C121.33 160.129 116.57 162.859 111.951 161.608L95.781 157.227C91.1613 155.975 88.431 151.216 89.6826 146.596L89.6826 146.596C90.9343 141.976 95.6939 139.246 100.314 140.497Z" fill="#A46648"/>
<path d="M97.7316 159.989L107.729 148.094C110.783 144.461 116.203 143.991 119.836 147.045C123.469 150.098 123.939 155.519 120.886 159.152L110.888 171.047C107.835 174.68 102.414 175.15 98.7808 172.096C95.1477 169.042 94.6779 163.622 97.7316 159.989Z" fill="#A46648"/>
<path d="M61.8945 90.9197C61.8945 86.0383 65.8517 82.0811 70.7331 82.0811H97.7208C102.602 82.0811 106.559 86.0383 106.559 90.9197V97.0757H84.2269H61.8945V90.9197Z" fill="#A46648"/>
<path d="M99.8578 88.4619H88.3725C87.4915 88.4619 86.7773 89.1761 86.7773 90.0571C86.7773 90.9381 87.4915 91.6523 88.3725 91.6523H99.8578C100.739 91.6523 101.453 90.9381 101.453 90.0571C101.453 89.1761 100.739 88.4619 99.8578 88.4619Z" fill="#884727"/>
<path d="M81.8681 86.2589C79.9368 84.776 74.6308 82.4307 68.8572 84.9122" stroke="#884727" stroke-width="1.98867" stroke-linecap="round" stroke-linejoin="round"/>
<path d="M112.851 166.464L106.293 162.05C103.437 160.127 99.5624 160.884 97.6395 163.74L97.6395 163.741C95.7167 166.597 96.4736 170.471 99.3301 172.394L105.888 176.809C108.745 178.732 112.619 177.975 114.542 175.118L114.542 175.118C116.465 172.262 115.708 168.387 112.851 166.464Z" fill="#A46648"/>
<path d="M118.519 104.732C122.836 104.732 126.335 101.233 126.335 96.916C126.335 92.5991 122.836 89.0996 118.519 89.0996C114.202 89.0996 110.703 92.5991 110.703 96.916C110.703 101.233 114.202 104.732 118.519 104.732Z" fill="#A46648"/>
<path d="M79.2766 192.787C79.7171 192.787 80.0742 192.429 80.0742 191.989C80.0742 191.548 79.7171 191.191 79.2766 191.191H76.7243C76.2839 191.191 75.9268 191.548 75.9268 191.989C75.9268 192.429 76.2839 192.787 76.7243 192.787H79.2766Z" fill="#0395DB"/>
<path d="M77.2402 246.784C77.222 246.04 77.8207 245.426 78.5655 245.426H106.54C107.26 245.426 107.848 246 107.866 246.72L108.12 257.149C108.138 257.893 107.54 258.507 106.795 258.507H78.8199C78.1003 258.507 77.5121 257.933 77.4945 257.213L77.2402 246.784Z" fill="#4CC5FF"/>
<path d="M41.2558 246.435C41.4016 245.843 41.933 245.426 42.5432 245.426H70.0923C70.9528 245.426 71.5853 246.233 71.3797 247.069L68.8133 257.498C68.6675 258.09 68.1361 258.507 67.526 258.507H39.9768C39.1163 258.507 38.4838 257.7 38.6895 256.864L41.2558 246.435Z" fill="#4CC5FF"/>
<path d="M99.5352 157.373C100.327 156.569 102.455 154.869 104.64 154.502" stroke="#995332" stroke-width="1.10482" stroke-linecap="round"/>
<path fill-rule="evenodd" clip-rule="evenodd" d="M79.7776 200.722L77.6016 211.472L78.3127 192.048C78.3307 191.555 78.7458 191.171 79.2386 191.191C79.7288 191.211 80.1108 191.623 80.0928 192.113L79.7776 200.722Z" fill="#0395DB"/>
<path opacity="0.3" d="M110.667 270.037H30.8337C28.574 270.037 26.7422 271.869 26.7422 274.129C26.7422 276.388 28.574 278.22 30.8337 278.22H110.667C112.927 278.22 114.759 276.388 114.759 274.129C114.759 271.869 112.927 270.037 110.667 270.037Z" fill="#AFAFAF"/>
</svg>
